<?xml version="1.0" encoding="UTF-8"?>
<svg id="OUTLINED" xmlns="http://www.w3.org/2000/svg" viewBox="0 0 720 720">
  <g>
    <path d="M251.1746,254.303c3.1175,3.5635,5.875,6.7156,8.6732,9.914-16.102,15.6362-27.7111,33.7926-35.1525,54.6362-3.6133,10.121-5.7402,20.5826-7.353,31.1623-2.6381,17.3059-1.1711,34.4919,2.0564,51.5452,3.7002,19.5513,11.227,37.6545,22.4672,54.0361,14.3033,20.8456,32.4793,37.3751,55.6304,48.1334,12.1724,5.6565,24.7693,9.6552,38.0821,11.5749,34.8553,5.026,66.8295-2.7115,96.2747-21.5637,5.8044-3.7162,11.2212-8.0714,16.1231-12.9594,1.4116-1.4076,2.2807-1.1174,3.6399-.1121,2.8597,2.1151,5.2141,4.7449,7.8203,7.2475-16.692,15.6973-35.9697,26.9367-57.6029,34.3203-9.4591,3.2285-19.1474,5.6495-29.0068,6.5983-16.7718,1.614-33.5253,1.0084-50.0596-2.9392-37.8556-9.0383-67.3897-30.3135-89.5296-61.8138-17.0356-24.238-26.5689-51.402-28.6735-81.1124-1.2804-18.076-.4561-35.9635,3.8475-53.5849,5.5258-22.6255,15.3265-43.1664,30.2851-61.1732,3.883-4.6742,8.0699-9.0316,12.4778-13.9096Z" fill="#231f20"/>
    <g>
      <path d="M339.5261,349.941c-7.3615,13.6179-15.4146,26.8612-22.154,40.816-2.622,5.4291-1.63,8.5588,3.6737,11.533,1.1621.6517,2.368,1.2246,3.5372,1.8644,8.0779,4.4203,16.0945,8.9576,24.2505,13.2286,4.0555,2.1238,7.5346.9096,9.552-2.6795,8.0431-14.3095,16.1158-28.6024,24.1756-42.9025,3.4283-6.0827,2.7716-8.6338-3.4495-11.7846-9.524-4.8236-19.1284-9.4887-28.7146-14.1885-.9365-.4591-1.9845-.6909-2.8341-.9787-3.5347.6712-6.4335,2.1257-8.0369,5.0918Z" fill="#231f20"/>
      <path d="M295.7299,321.6463c-1.9843,1.5696-3.6504,3.4365-5.0918,5.5983-4.3117,6.4663-7.9131,13.3326-11.4373,20.2196-2.7824,5.4375-5.4554,10.9968-6.7514,16.5048.1236,3.2199.7886,5.6772,3.0313,7.268,6.9661,4.9412,13.9576,9.8493,21.0274,14.6402,3.0447,2.0633,6.9813,1.1058,8.4869-2.1452,6.7497-14.5735,14.8449-28.394,23.143-42.113,2.7017-4.4665,1.5062-7.6643-3.4051-9.8047-7.4704-3.2558-14.9119-6.5808-21.9614-10.684-2.5914-1.5084-4.8869-1.1884-7.0415.516Z" fill="#231f20"/>
      <path d="M396.7617,345.6951c7.5283-11.6468,15.1688-23.2212,22.7095-34.8601,2.2198-3.4264,1.7484-5.9696-1.8073-7.9827-7.3054-4.1361-14.6766-8.1756-22.186-11.9236-3.6139-1.8037-7.3781-1.2609-10.2239,1.9187-9.0716,10.1359-18.19,20.2349-27.0306,30.5703-4.0945,4.7868-3.3678,7.4525,2.0491,10.401,7.8479,4.2718,15.7022,8.535,23.6311,12.653,1.9667,1.0214,3.8601,2.4413,6.3537,2.4854,2.2665-.7746,4.8937-.77,6.5045-3.262Z" fill="#231f20"/>
      <path d="M328.0145,465.1576c6.1453-8.9243,10.9285-18.666,16.7006-27.8148.5523-.8753.812-1.9353,1.0394-2.4957-.1549-4.2327-3.074-5.6339-5.7482-7.0758-7.9905-4.3084-16.0973-8.4025-24.0621-12.7567-4.9975-2.732-8.204-1.6587-10.3144,3.4681-3.7318,9.0657-5.0377,18.8065-8.057,28.0684-1.7564,5.3877-.8484,8.0882,3.7432,11.4683,5.2708,3.8801,10.7712,7.4045,16.857,9.9385,4.8309,2.0113,6.915,1.4494,9.8415-2.8003Z" fill="#231f20"/>
      <path d="M371.4316,288.158c3.0101-3.264,2.4773-5.6438-1.5222-7.3568-5.5126-2.3611-11.1681-4.4252-16.5375-7.0726-4.5963-2.2662-8.524-1.3125-12.2582,1.451-11.3769,8.4194-22.25,17.4242-31.7269,28.0052-2.3203,2.5907-1.992,5.0189,1.1722,6.1729,8.2895,3.0233,16.0942,7.1092,24.1217,10.705.9586.4294,1.9835.7106,2.518.8987,4.3737-.2073,6.8221-2.7314,9.0703-5.3841,5.5219-6.5153,10.9943-13.07,17.0078-19.1467,2.7239-2.7525,5.5313-5.4277,8.1549-8.2726Z" fill="#231f20"/>
      <path d="M412.628,361.0398c5.7924,3.295,11.6104,6.5449,17.4163,9.8162,3.2951,1.8566,5.0185,1.4002,6.7166-2.0366,5.4936-11.1182,10.9515-22.2543,16.3548-33.4166.9229-1.9066,1.5093-3.976,2.1072-5.5833-.3209-2.5647-1.2836-4.2445-3.0542-5.4385-4.0846-2.7546-8.1247-5.5783-12.2649-8.2466-4.6601-3.0033-7.2138-2.4925-10.1965,2.2684-6.7226,10.7306-13.3519,21.5205-19.9255,32.3432-2.7376,4.5071-1.7932,7.6545,2.8462,10.2937Z" fill="#231f20"/>
      <path d="M363.0901,480.4084c10.0662-7.3519,19.1897-15.7431,27.4239-25.1081,3.7292-4.2413,3.5816-5.2299-1.5197-7.2171-7.4647-2.9079-14.9573-5.7438-22.4343-8.6201-3.8391-1.4769-6.9225-.1602-9.117,2.9443-6.6223,9.3684-12.8506,19.0139-19.9059,28.0785-1.7532,2.2524-1.1816,4.6028,1.1346,5.802,5.9397,3.0755,12.5455,4.2945,18.0211,6.1568,3.1343.0091,3.7022-.068,6.3973-2.0363Z" fill="#231f20"/>
      <path d="M291.2411,423.9056c1.5051-5.9361,3.1044-11.8483,4.675-17.8198-.0264-3.4968-2.2552-5.5861-4.9217-7.235-6.4716-4.0018-12.4916-8.6207-18.4651-13.3025-3.0564-2.3954-5.0371-1.9595-6.2574,1.7037-.4581,1.3751-.6736,2.8555-.8199,4.306-.9937,9.85-.9621,19.7291-.7827,29.6125.0595,3.2803.5871,6.5736,2.6129,9.0918,4.7655,5.9235,9.9948,11.4569,16.7223,15.2451,2.3545,1.3258,3.741.5749,3.8795-2.3269.3129-6.5577,1.7505-12.9379,3.3572-19.275Z" fill="#231f20"/>
      <path d="M408.2093,283.6594c5.1836,2.752,10.4623,5.3256,15.7145,7.9469,1.2988.6482,2.562,1.4823,4.7358,1.2454,2.2304.0698,4.152-1.6033,5.7779-3.6115,4.714-5.8223,9.7853-11.3197,15.1857-16.4942,2.428-2.3264,1.9603-3.8422-.4393-5.7562-4.1168-3.2835-9.0185-5.1653-13.4097-7.9274-3.0028-1.8887-5.6671-1.7969-8.5057.2122-6.748,4.7758-13.4108,9.6699-20.1096,14.5071-5.3701,3.8777-5.5732,6.361,1.0505,9.8776Z" fill="#231f20"/>
      <path d="M248.8694,345.4956c-.1599,1.8455.8615,2.9095,1.9378,3.9377,2.124,2.0292,4.2881,4.0174,6.3767,6.0821,3.7999,3.7564,5.797,3.2509,7.1115-2.1002,1.0583-4.3081,2.5997-8.3618,4.6202-12.3189,4.0716-7.9742,8.6582-15.645,13.1365-23.3852,2.3096-3.9918,1.7894-5.426-2.239-7.737-2.7851-1.5978-5.6023-3.1807-7.8755-5.4647-1.9829-1.9923-3.3594-1.3813-4.886.5186-4.3036,5.3561-7.4685,11.4025-10.3172,17.5727-3.4141,7.3947-6.1002,15.0921-7.865,22.8948Z" fill="#231f20"/>
      <path d="M278.3532,295.409c3.5499.7928,6.5643,2.9287,9.7669,4.5685,1.0775.5517,2.0752,1.2268,3.2589,1.0845,1.7297.0423,2.8665-.2361,4.2565-1.1959.7632-.5271,1.4498-1.176,2.1249-1.8184,10.0495-9.5605,19.4053-19.945,31.7889-26.7297.2327-.1274.4426-.3005.6512-.4672.9393-.7505,2.0684-1.4827,1.7598-2.8838-.2913-1.3228-1.6202-1.1703-2.6163-1.421-2.4604-.6192-4.9697-1.0838-7.3776-1.863-4.2335-1.3699-7.972-.9233-11.7078,1.7359-6.7418,4.7988-13.5282,9.5252-19.9302,14.7795-4.2265,3.4688-8.5121,6.8669-12.6936,10.3889-1.8067,1.5217-2.8951,3.0147.7183,3.8217Z" fill="#231f20"/>
      <path d="M363.5834,265.2713c5.4513,2.1326,11.008,3.9974,16.5362,5.93,1.7424.6091,3.3606,1.6936,5.3315,1.5032,1.9657.1218,3.6243-.6861,5.2348-1.6917,8.3636-5.2221,16.7411-10.4218,25.0975-15.6554.9424-.5902,2.6682-.6619,2.4023-2.2241-.2135-1.2546-1.6133-1.6848-2.7506-2.0796-4.9641-1.7228-10.2228-1.7662-15.3344-2.6533-2.4891-.432-5.0002-1.2234-7.507-.3361-10.0787,3.5673-19.612,8.3661-29.1733,13.0912-2.825,1.3961-2.4112,3.109.1629,4.1159Z" fill="#231f20"/>
      <path d="M466.3872,280.2981c-.8253-.6703-1.6184-1.3983-2.3314-2.1855-2.3154-2.556-4.4393-2.1363-6.7016.1534-5.3689,5.4337-9.6289,11.6944-13.8542,18.0067-2.0018,2.9904-1.2703,5.2161,1.3521,7.1551,3.8535,2.8491,7.7424,5.6507,11.6373,8.4433.752.5392,1.5679,1.0361,2.5718.9121,2.2357-.2633,4.0144-1.0899,5.068-3.3057,2.0007-4.2078,4.2482-8.2986,6.2406-12.5101,4.5986-9.7203,4.5577-9.733-3.9826-16.6692Z" fill="#231f20"/>
      <path d="M244.5152,393.0135c.2162,7.7755,2.0319,15.0489,7.1245,21.1953,1.0693,1.2906,1.9334,3.495,3.8636,2.9011,1.8994-.5845.9433-2.7968.945-4.2583.0116-9.8818-.8257-19.8726.8975-29.5936,1.5415-8.6952-3.2491-14.3574-7.4647-20.5496-.6473-.9509-1.5429-2.0046-2.9483-1.7171-1.8011.3684-1.4363,1.9865-1.6652,3.234-1.0418,5.6807-.927,11.4316-.7713,17.1699,0,3.873-.0889,7.7484.0188,11.6183Z" fill="#231f20"/>
      <path d="M307.9889,486.1479c3.7013-.1645,5.6404-2.2237,7.6314-4.1822,1.8717-1.8412,1.6578-3.5965-.523-4.8978-5.1207-3.0555-10.2957-6.022-15.4928-8.946-1.1756-.6615-2.514-.9289-3.6531.2874-1.3115,1.4005-2.2339,8.49-1.0067,9.9199,3.6023,4.1972,8.9131,5.5143,13.0442,7.8186Z" fill="#231f20"/>
      <path d="M350.0498,258.1428c7.4589-3.1824,14.9723-6.1871,22.5592-9.0322.8076-.3029,2.057-.517,1.8818-1.7251-.2058-1.4192-1.4981-1.2255-2.5471-1.2448-4.3047-.0788-8.4531,1.0009-12.6187,1.8301-9.381,1.8672-18.6003,4.2964-27.2242,8.9967,5.975,1.1572,12.0351,3.6986,17.949,1.1754Z" fill="#231f20"/>
      <path d="M287.8512,463.6573c.1559-1.8202-.8583-3.0643-2.0483-4.1839-4.0845-3.8427-8.1679-7.6873-12.3146-11.4623-.8207-.7472-1.7495-2.1323-3.0376-1.2867-1.5834,1.0393-.4506,2.4952.1555,3.5366,3.5531,6.1052,7.1643,12.1865,11.6334,17.6843,1.1178,1.3751,2.0791,3.8767,4.0998,3.1722,1.7611-.6139.6236-3.0977.9823-4.715.2018-.9094.3546-1.8297.5295-2.7452Z" fill="#231f20"/>
      <path d="M322.5754,492.3268c7.5905.7004,15.1419.9715,22.5288-3.165-8.9334-6.0656-16.3572-6.246-23.2199-.8803-.8057.63-2.1182.9745-1.8037,2.3301.2778,1.197,1.4726,1.6209,2.4948,1.7152Z" fill="#231f20"/>
      <path d="M264.0744,444.9194c-.7849-7.6201-5.665-12.9943-10.1682-18.5752,2.7041,6.5676,4.7113,13.5173,10.1682,18.5752Z" fill="#231f20"/>
    </g>
  </g>
  <g>
    <path d="M312.4902,230.019l-6.3574-5.9902-17.3994,9.3115,1.7021,8.4824-14.1514,7.5732-10.792-59.3271,16.4609-8.8096,43.9971,41.5566-13.46,7.2031ZM286.1377,220.4067l10.2988-5.5117-14.3945-14.4316,4.0957,19.9434Z" fill="#231f20"/>
    <path d="M351.9287,221.2056c-8.6387,1.2354-16.1904-.5703-22.6572-5.417-6.4668-4.8447-10.3037-11.4902-11.5107-19.9326s.6143-15.8945,5.4648-22.3594c4.8496-6.4629,11.5928-10.3135,20.2314-11.5488,5.1934-.7422,10.1787-.2119,14.9551,1.5898,4.7764,1.8027,8.7158,4.5811,11.8193,8.333l-11.6787,9.042c-1.3799-1.8447-3.2324-3.1953-5.5586-4.0508-2.3262-.8545-4.8281-1.0908-7.5068-.708-4.5918.6562-8.0938,2.6064-10.502,5.8506-2.4102,3.2432-3.2852,7.166-2.6279,11.7646.6572,4.6006,2.5967,8.1191,5.8193,10.5586,3.2207,2.4385,7.1289,3.3291,11.7207,2.6729,2.6777-.3838,5.0137-1.3096,7.0078-2.7832,1.9932-1.4717,3.3887-3.3135,4.1895-5.5273l13.7549,5.4883c-1.9189,4.5273-4.9072,8.3096-8.9639,11.3457-4.0566,3.0371-8.709,4.9316-13.957,5.6816Z" fill="#231f20"/>
    <path d="M394.8154,207.1196l22.1064,3.9121-2.4014,13.5654-36.708-6.4971,10.0039-56.5215,36.2998,6.4248-2.3867,13.4834-21.6982-3.8389-1.3857,7.832,19.6582,3.4785-2.3574,13.3232-19.6592-3.4785-1.4717,8.3164Z" fill="#231f20"/>
    <path d="M471.541,217.8228l-7.4277-3.8643-3.5078,4.6455,7.4961,3.8994-5.9375,8.0029-7.5742-3.9404-7.2676,9.6221-9.3867-4.8838,7.2666-9.6221-6.0449-3.1455-7.2676,9.6221-9.3877-4.8828,7.2676-9.6221-7.4219-3.8623,5.9375-8.002,7.5,3.9004,3.5088-4.6436-7.4961-3.9004,5.9375-8.0029,7.5732,3.9404,7.2686-9.6221,9.3877,4.8848-7.2676,9.6211,6.0439,3.1445,7.2686-9.6211,9.3887,4.8838-7.2695,9.6221,7.3496,3.8232-5.9375,8.0029ZM451.2168,213.7192l3.5098-4.6445-6.0449-3.1455-3.5088,4.6455,6.0439,3.1445Z" fill="#231f20"/>
    <path d="M507.2441,215.3364l9.333,8.6973-39.1299,41.9941-10.8486-10.1084,28.6201-30.7158-9.126-5.0303,5.835-11.4873,15.3164,6.6504Z" fill="#231f20"/>
  </g>
</svg>